<?xml version="1.0" standalone="no"?>
<!DOCTYPE svg PUBLIC "-//W3C//DTD SVG 20010904//EN"
 "http://www.w3.org/TR/2001/REC-SVG-20010904/DTD/svg10.dtd">
<svg version="1.0" xmlns="http://www.w3.org/2000/svg"
 width="512.000000pt" height="512.000000pt" viewBox="0 0 512.000000 512.000000"
 preserveAspectRatio="xMidYMid meet">
<metadata>
Created by potrace 1.15, written by Peter Selinger 2001-2017
</metadata>
<g transform="translate(0.000000,512.000000) scale(0.100000,-0.100000)"
fill="#000000" stroke="none">
<path d="M1438 4559 l-1118 -559 0 -1440 0 -1440 1120 -560 1120 -560 1120
560 1120 560 0 1440 0 1440 -1120 560 c-616 308 -1121 560 -1123 559 -1 0
-505 -252 -1119 -560z m1897 -311 l765 -383 -770 -385 -770 -385 -770 385
-770 385 763 382 c419 210 768 382 774 382 7 1 357 -171 778 -381z m-997
-2589 c1 -582 0 -1059 -3 -1059 -3 0 -361 178 -795 395 l-790 395 0 1060 0
1059 793 -395 792 -395 3 -1060z m2032 791 l0 -1060 -790 -395 c-434 -217
-792 -395 -795 -395 -3 0 -5 476 -5 1059 l0 1058 793 396 c435 217 793 396
795 396 1 1 2 -476 2 -1059z"/>
</g>
</svg>
